<mxfile host="Electron" modified="2023-11-21T06:54:20.443Z" agent="Mozilla/5.0 (Windows NT 10.0; Win64; x64) AppleWebKit/537.36 (KHTML, like Gecko) draw.io/22.0.3 Chrome/114.0.5735.289 Electron/25.8.4 Safari/537.36" etag="lEphkzL_VSXHPT2h16YF" version="22.0.3" type="device">
  <diagram name="Page-1" id="nbZPLVL7Xi8lmD4JT5gN">
    <mxGraphModel dx="1252" dy="601" grid="1" gridSize="10" guides="1" tooltips="1" connect="1" arrows="1" fold="1" page="1" pageScale="1" pageWidth="850" pageHeight="1100" math="0" shadow="0">
      <root>
        <mxCell id="0" />
        <mxCell id="1" parent="0" />
        <mxCell id="SjxvgcQ4MEaavuWz4iyZ-2" value="Home" style="swimlane;fontStyle=0;childLayout=stackLayout;horizontal=1;startSize=26;horizontalStack=0;resizeParent=1;resizeParentMax=0;resizeLast=0;collapsible=1;marginBottom=0;align=center;fontSize=14;" parent="1" vertex="1">
          <mxGeometry x="150" y="180" width="160" height="206" as="geometry" />
        </mxCell>
        <mxCell id="SjxvgcQ4MEaavuWz4iyZ-3" value="Icons callback" style="text;strokeColor=none;fillColor=none;spacingLeft=4;spacingRight=4;overflow=hidden;rotatable=0;points=[[0,0.5],[1,0.5]];portConstraint=eastwest;fontSize=12;whiteSpace=wrap;html=1;" parent="SjxvgcQ4MEaavuWz4iyZ-2" vertex="1">
          <mxGeometry y="26" width="160" height="30" as="geometry" />
        </mxCell>
        <mxCell id="SjxvgcQ4MEaavuWz4iyZ-4" value="search box&amp;nbsp;" style="text;strokeColor=none;fillColor=none;spacingLeft=4;spacingRight=4;overflow=hidden;rotatable=0;points=[[0,0.5],[1,0.5]];portConstraint=eastwest;fontSize=12;whiteSpace=wrap;html=1;" parent="SjxvgcQ4MEaavuWz4iyZ-2" vertex="1">
          <mxGeometry y="56" width="160" height="30" as="geometry" />
        </mxCell>
        <mxCell id="SjxvgcQ4MEaavuWz4iyZ-5" value="search tag&amp;nbsp;&lt;br&gt;" style="text;strokeColor=none;fillColor=none;spacingLeft=4;spacingRight=4;overflow=hidden;rotatable=0;points=[[0,0.5],[1,0.5]];portConstraint=eastwest;fontSize=12;whiteSpace=wrap;html=1;" parent="SjxvgcQ4MEaavuWz4iyZ-2" vertex="1">
          <mxGeometry y="86" width="160" height="30" as="geometry" />
        </mxCell>
        <mxCell id="SjxvgcQ4MEaavuWz4iyZ-13" style="edgeStyle=orthogonalEdgeStyle;rounded=0;orthogonalLoop=1;jettySize=auto;html=1;exitX=1;exitY=0.5;exitDx=0;exitDy=0;" parent="SjxvgcQ4MEaavuWz4iyZ-2" source="SjxvgcQ4MEaavuWz4iyZ-9" edge="1">
          <mxGeometry relative="1" as="geometry">
            <mxPoint x="400" y="130" as="targetPoint" />
          </mxGeometry>
        </mxCell>
        <mxCell id="SjxvgcQ4MEaavuWz4iyZ-9" value="items" style="text;strokeColor=none;fillColor=none;spacingLeft=4;spacingRight=4;overflow=hidden;rotatable=0;points=[[0,0.5],[1,0.5]];portConstraint=eastwest;fontSize=12;whiteSpace=wrap;html=1;" parent="SjxvgcQ4MEaavuWz4iyZ-2" vertex="1">
          <mxGeometry y="116" width="160" height="30" as="geometry" />
        </mxCell>
        <mxCell id="SjxvgcQ4MEaavuWz4iyZ-12" value="cart" style="text;strokeColor=none;fillColor=none;spacingLeft=4;spacingRight=4;overflow=hidden;rotatable=0;points=[[0,0.5],[1,0.5]];portConstraint=eastwest;fontSize=12;whiteSpace=wrap;html=1;" parent="SjxvgcQ4MEaavuWz4iyZ-2" vertex="1">
          <mxGeometry y="146" width="160" height="30" as="geometry" />
        </mxCell>
        <mxCell id="SjxvgcQ4MEaavuWz4iyZ-11" value="acoount&lt;br&gt;" style="text;strokeColor=none;fillColor=none;spacingLeft=4;spacingRight=4;overflow=hidden;rotatable=0;points=[[0,0.5],[1,0.5]];portConstraint=eastwest;fontSize=12;whiteSpace=wrap;html=1;" parent="SjxvgcQ4MEaavuWz4iyZ-2" vertex="1">
          <mxGeometry y="176" width="160" height="30" as="geometry" />
        </mxCell>
        <mxCell id="SjxvgcQ4MEaavuWz4iyZ-14" value="found" style="text;html=1;align=center;verticalAlign=middle;resizable=0;points=[];autosize=1;strokeColor=none;fillColor=none;" parent="1" vertex="1">
          <mxGeometry x="480" y="280" width="50" height="30" as="geometry" />
        </mxCell>
        <mxCell id="SjxvgcQ4MEaavuWz4iyZ-15" value="" style="endArrow=classic;html=1;rounded=0;" parent="1" edge="1">
          <mxGeometry width="50" height="50" relative="1" as="geometry">
            <mxPoint x="440" y="310" as="sourcePoint" />
            <mxPoint x="440" y="200" as="targetPoint" />
          </mxGeometry>
        </mxCell>
        <mxCell id="SjxvgcQ4MEaavuWz4iyZ-16" value="not found" style="text;html=1;align=center;verticalAlign=middle;resizable=0;points=[];autosize=1;strokeColor=none;fillColor=none;" parent="1" vertex="1">
          <mxGeometry x="445" y="230" width="70" height="30" as="geometry" />
        </mxCell>
        <mxCell id="SjxvgcQ4MEaavuWz4iyZ-18" value="logined" style="text;html=1;align=center;verticalAlign=middle;resizable=0;points=[];autosize=1;strokeColor=none;fillColor=none;" parent="1" vertex="1">
          <mxGeometry x="80" y="566" width="60" height="30" as="geometry" />
        </mxCell>
        <mxCell id="SjxvgcQ4MEaavuWz4iyZ-19" value="" style="endArrow=classic;html=1;rounded=0;" parent="1" edge="1">
          <mxGeometry width="50" height="50" relative="1" as="geometry">
            <mxPoint x="80" y="448" as="sourcePoint" />
            <mxPoint x="220" y="448" as="targetPoint" />
          </mxGeometry>
        </mxCell>
        <mxCell id="SjxvgcQ4MEaavuWz4iyZ-20" value="didn&#39;t log in" style="text;html=1;align=center;verticalAlign=middle;resizable=0;points=[];autosize=1;strokeColor=none;fillColor=none;" parent="1" vertex="1">
          <mxGeometry x="110" y="428" width="80" height="30" as="geometry" />
        </mxCell>
        <mxCell id="SjxvgcQ4MEaavuWz4iyZ-22" value="Đăng nhập" style="swimlane;fontStyle=0;childLayout=stackLayout;horizontal=1;startSize=26;horizontalStack=0;resizeParent=1;resizeParentMax=0;resizeLast=0;collapsible=1;marginBottom=0;align=center;fontSize=14;" parent="1" vertex="1">
          <mxGeometry x="220" y="410" width="160" height="86" as="geometry" />
        </mxCell>
        <mxCell id="SjxvgcQ4MEaavuWz4iyZ-23" value="Login" style="text;strokeColor=none;fillColor=none;spacingLeft=4;spacingRight=4;overflow=hidden;rotatable=0;points=[[0,0.5],[1,0.5]];portConstraint=eastwest;fontSize=12;whiteSpace=wrap;html=1;" parent="SjxvgcQ4MEaavuWz4iyZ-22" vertex="1">
          <mxGeometry y="26" width="160" height="30" as="geometry" />
        </mxCell>
        <mxCell id="SjxvgcQ4MEaavuWz4iyZ-25" value="Register" style="text;strokeColor=none;fillColor=none;spacingLeft=4;spacingRight=4;overflow=hidden;rotatable=0;points=[[0,0.5],[1,0.5]];portConstraint=eastwest;fontSize=12;whiteSpace=wrap;html=1;" parent="SjxvgcQ4MEaavuWz4iyZ-22" vertex="1">
          <mxGeometry y="56" width="160" height="30" as="geometry" />
        </mxCell>
        <mxCell id="SjxvgcQ4MEaavuWz4iyZ-26" value="acoount" style="swimlane;fontStyle=0;childLayout=stackLayout;horizontal=1;startSize=26;horizontalStack=0;resizeParent=1;resizeParentMax=0;resizeLast=0;collapsible=1;marginBottom=0;align=center;fontSize=14;" parent="1" vertex="1">
          <mxGeometry x="80" y="660" width="160" height="116" as="geometry" />
        </mxCell>
        <mxCell id="SjxvgcQ4MEaavuWz4iyZ-27" value="Infor" style="text;strokeColor=none;fillColor=none;spacingLeft=4;spacingRight=4;overflow=hidden;rotatable=0;points=[[0,0.5],[1,0.5]];portConstraint=eastwest;fontSize=12;whiteSpace=wrap;html=1;" parent="SjxvgcQ4MEaavuWz4iyZ-26" vertex="1">
          <mxGeometry y="26" width="160" height="30" as="geometry" />
        </mxCell>
        <mxCell id="SjxvgcQ4MEaavuWz4iyZ-28" value="Oder" style="text;strokeColor=none;fillColor=none;spacingLeft=4;spacingRight=4;overflow=hidden;rotatable=0;points=[[0,0.5],[1,0.5]];portConstraint=eastwest;fontSize=12;whiteSpace=wrap;html=1;" parent="SjxvgcQ4MEaavuWz4iyZ-26" vertex="1">
          <mxGeometry y="56" width="160" height="30" as="geometry" />
        </mxCell>
        <mxCell id="SjxvgcQ4MEaavuWz4iyZ-29" value="log out" style="text;strokeColor=none;fillColor=none;spacingLeft=4;spacingRight=4;overflow=hidden;rotatable=0;points=[[0,0.5],[1,0.5]];portConstraint=eastwest;fontSize=12;whiteSpace=wrap;html=1;" parent="SjxvgcQ4MEaavuWz4iyZ-26" vertex="1">
          <mxGeometry y="86" width="160" height="30" as="geometry" />
        </mxCell>
        <mxCell id="SjxvgcQ4MEaavuWz4iyZ-34" value="Food Item" style="swimlane;fontStyle=0;childLayout=stackLayout;horizontal=1;startSize=26;horizontalStack=0;resizeParent=1;resizeParentMax=0;resizeLast=0;collapsible=1;marginBottom=0;align=center;fontSize=14;" parent="1" vertex="1">
          <mxGeometry x="550" y="224" width="160" height="86" as="geometry" />
        </mxCell>
        <mxCell id="SjxvgcQ4MEaavuWz4iyZ-36" value="detail" style="text;strokeColor=none;fillColor=none;spacingLeft=4;spacingRight=4;overflow=hidden;rotatable=0;points=[[0,0.5],[1,0.5]];portConstraint=eastwest;fontSize=12;whiteSpace=wrap;html=1;" parent="SjxvgcQ4MEaavuWz4iyZ-34" vertex="1">
          <mxGeometry y="26" width="160" height="30" as="geometry" />
        </mxCell>
        <mxCell id="SjxvgcQ4MEaavuWz4iyZ-37" value="add cart" style="text;strokeColor=none;fillColor=none;spacingLeft=4;spacingRight=4;overflow=hidden;rotatable=0;points=[[0,0.5],[1,0.5]];portConstraint=eastwest;fontSize=12;whiteSpace=wrap;html=1;" parent="SjxvgcQ4MEaavuWz4iyZ-34" vertex="1">
          <mxGeometry y="56" width="160" height="30" as="geometry" />
        </mxCell>
        <mxCell id="ZWHWGXlmYglfmt71y6hl-1" style="edgeStyle=orthogonalEdgeStyle;rounded=0;orthogonalLoop=1;jettySize=auto;html=1;exitX=1;exitY=0;exitDx=0;exitDy=0;" edge="1" parent="1" source="SjxvgcQ4MEaavuWz4iyZ-40">
          <mxGeometry relative="1" as="geometry">
            <mxPoint x="620" y="320" as="targetPoint" />
          </mxGeometry>
        </mxCell>
        <mxCell id="SjxvgcQ4MEaavuWz4iyZ-40" value="Cart" style="swimlane;fontStyle=0;childLayout=stackLayout;horizontal=1;startSize=26;horizontalStack=0;resizeParent=1;resizeParentMax=0;resizeLast=0;collapsible=1;marginBottom=0;align=center;fontSize=14;" parent="1" vertex="1">
          <mxGeometry x="460" y="400" width="160" height="86" as="geometry" />
        </mxCell>
        <mxCell id="SjxvgcQ4MEaavuWz4iyZ-41" value="whislist item" style="text;strokeColor=none;fillColor=none;spacingLeft=4;spacingRight=4;overflow=hidden;rotatable=0;points=[[0,0.5],[1,0.5]];portConstraint=eastwest;fontSize=12;whiteSpace=wrap;html=1;" parent="SjxvgcQ4MEaavuWz4iyZ-40" vertex="1">
          <mxGeometry y="26" width="160" height="30" as="geometry" />
        </mxCell>
        <mxCell id="SjxvgcQ4MEaavuWz4iyZ-42" value="oder" style="text;strokeColor=none;fillColor=none;spacingLeft=4;spacingRight=4;overflow=hidden;rotatable=0;points=[[0,0.5],[1,0.5]];portConstraint=eastwest;fontSize=12;whiteSpace=wrap;html=1;" parent="SjxvgcQ4MEaavuWz4iyZ-40" vertex="1">
          <mxGeometry y="56" width="160" height="30" as="geometry" />
        </mxCell>
        <mxCell id="SjxvgcQ4MEaavuWz4iyZ-44" style="edgeStyle=orthogonalEdgeStyle;rounded=0;orthogonalLoop=1;jettySize=auto;html=1;exitX=1;exitY=0.5;exitDx=0;exitDy=0;entryX=1;entryY=0.5;entryDx=0;entryDy=0;" parent="1" source="SjxvgcQ4MEaavuWz4iyZ-37" target="SjxvgcQ4MEaavuWz4iyZ-41" edge="1">
          <mxGeometry relative="1" as="geometry" />
        </mxCell>
        <mxCell id="SjxvgcQ4MEaavuWz4iyZ-45" style="edgeStyle=orthogonalEdgeStyle;rounded=0;orthogonalLoop=1;jettySize=auto;html=1;exitX=1;exitY=0.5;exitDx=0;exitDy=0;entryX=0.5;entryY=0;entryDx=0;entryDy=0;" parent="1" source="SjxvgcQ4MEaavuWz4iyZ-12" target="SjxvgcQ4MEaavuWz4iyZ-40" edge="1">
          <mxGeometry relative="1" as="geometry" />
        </mxCell>
        <mxCell id="SjxvgcQ4MEaavuWz4iyZ-46" style="edgeStyle=orthogonalEdgeStyle;rounded=0;orthogonalLoop=1;jettySize=auto;html=1;exitX=0;exitY=0.75;exitDx=0;exitDy=0;entryX=1.03;entryY=-0.047;entryDx=0;entryDy=0;entryPerimeter=0;" parent="1" source="SjxvgcQ4MEaavuWz4iyZ-40" target="SjxvgcQ4MEaavuWz4iyZ-25" edge="1">
          <mxGeometry relative="1" as="geometry" />
        </mxCell>
        <mxCell id="SjxvgcQ4MEaavuWz4iyZ-47" value="not login" style="text;html=1;align=center;verticalAlign=middle;resizable=0;points=[];autosize=1;strokeColor=none;fillColor=none;" parent="1" vertex="1">
          <mxGeometry x="385" y="428" width="70" height="30" as="geometry" />
        </mxCell>
        <mxCell id="SjxvgcQ4MEaavuWz4iyZ-49" value="logged in" style="text;html=1;align=center;verticalAlign=middle;resizable=0;points=[];autosize=1;strokeColor=none;fillColor=none;" parent="1" vertex="1">
          <mxGeometry x="660" y="536" width="70" height="30" as="geometry" />
        </mxCell>
        <mxCell id="SjxvgcQ4MEaavuWz4iyZ-50" value="Oder" style="swimlane;fontStyle=0;childLayout=stackLayout;horizontal=1;startSize=26;horizontalStack=0;resizeParent=1;resizeParentMax=0;resizeLast=0;collapsible=1;marginBottom=0;align=center;fontSize=14;" parent="1" vertex="1">
          <mxGeometry x="580" y="660" width="160" height="86" as="geometry" />
        </mxCell>
        <mxCell id="SjxvgcQ4MEaavuWz4iyZ-51" value="details" style="text;strokeColor=none;fillColor=none;spacingLeft=4;spacingRight=4;overflow=hidden;rotatable=0;points=[[0,0.5],[1,0.5]];portConstraint=eastwest;fontSize=12;whiteSpace=wrap;html=1;" parent="SjxvgcQ4MEaavuWz4iyZ-50" vertex="1">
          <mxGeometry y="26" width="160" height="30" as="geometry" />
        </mxCell>
        <mxCell id="SjxvgcQ4MEaavuWz4iyZ-52" value="confirm" style="text;strokeColor=none;fillColor=none;spacingLeft=4;spacingRight=4;overflow=hidden;rotatable=0;points=[[0,0.5],[1,0.5]];portConstraint=eastwest;fontSize=12;whiteSpace=wrap;html=1;" parent="SjxvgcQ4MEaavuWz4iyZ-50" vertex="1">
          <mxGeometry y="56" width="160" height="30" as="geometry" />
        </mxCell>
        <mxCell id="SjxvgcQ4MEaavuWz4iyZ-57" value="oderd" style="swimlane;fontStyle=0;childLayout=stackLayout;horizontal=1;startSize=26;horizontalStack=0;resizeParent=1;resizeParentMax=0;resizeLast=0;collapsible=1;marginBottom=0;align=center;fontSize=14;" parent="1" vertex="1">
          <mxGeometry x="80" y="840" width="160" height="86" as="geometry" />
        </mxCell>
        <mxCell id="SjxvgcQ4MEaavuWz4iyZ-58" value="details" style="text;strokeColor=none;fillColor=none;spacingLeft=4;spacingRight=4;overflow=hidden;rotatable=0;points=[[0,0.5],[1,0.5]];portConstraint=eastwest;fontSize=12;whiteSpace=wrap;html=1;" parent="SjxvgcQ4MEaavuWz4iyZ-57" vertex="1">
          <mxGeometry y="26" width="160" height="30" as="geometry" />
        </mxCell>
        <mxCell id="SjxvgcQ4MEaavuWz4iyZ-60" value="Item 3" style="text;strokeColor=none;fillColor=none;spacingLeft=4;spacingRight=4;overflow=hidden;rotatable=0;points=[[0,0.5],[1,0.5]];portConstraint=eastwest;fontSize=12;whiteSpace=wrap;html=1;" parent="SjxvgcQ4MEaavuWz4iyZ-57" vertex="1">
          <mxGeometry y="56" width="160" height="30" as="geometry" />
        </mxCell>
        <mxCell id="SjxvgcQ4MEaavuWz4iyZ-61" value="payment" style="swimlane;fontStyle=0;childLayout=stackLayout;horizontal=1;startSize=26;horizontalStack=0;resizeParent=1;resizeParentMax=0;resizeLast=0;collapsible=1;marginBottom=0;align=center;fontSize=14;" parent="1" vertex="1">
          <mxGeometry x="330" y="710" width="160" height="56" as="geometry" />
        </mxCell>
        <mxCell id="SjxvgcQ4MEaavuWz4iyZ-64" value="Item 3" style="text;strokeColor=none;fillColor=none;spacingLeft=4;spacingRight=4;overflow=hidden;rotatable=0;points=[[0,0.5],[1,0.5]];portConstraint=eastwest;fontSize=12;whiteSpace=wrap;html=1;" parent="SjxvgcQ4MEaavuWz4iyZ-61" vertex="1">
          <mxGeometry y="26" width="160" height="30" as="geometry" />
        </mxCell>
        <mxCell id="SjxvgcQ4MEaavuWz4iyZ-67" style="edgeStyle=orthogonalEdgeStyle;rounded=0;orthogonalLoop=1;jettySize=auto;html=1;exitX=0;exitY=0.5;exitDx=0;exitDy=0;entryX=0.998;entryY=-0.14;entryDx=0;entryDy=0;entryPerimeter=0;" parent="1" source="SjxvgcQ4MEaavuWz4iyZ-52" target="SjxvgcQ4MEaavuWz4iyZ-64" edge="1">
          <mxGeometry relative="1" as="geometry" />
        </mxCell>
        <mxCell id="SjxvgcQ4MEaavuWz4iyZ-69" style="edgeStyle=orthogonalEdgeStyle;rounded=0;orthogonalLoop=1;jettySize=auto;html=1;exitX=0;exitY=0.25;exitDx=0;exitDy=0;entryX=0.995;entryY=0.287;entryDx=0;entryDy=0;entryPerimeter=0;" parent="1" source="SjxvgcQ4MEaavuWz4iyZ-61" target="SjxvgcQ4MEaavuWz4iyZ-28" edge="1">
          <mxGeometry relative="1" as="geometry" />
        </mxCell>
        <mxCell id="SjxvgcQ4MEaavuWz4iyZ-70" style="edgeStyle=orthogonalEdgeStyle;rounded=0;orthogonalLoop=1;jettySize=auto;html=1;exitX=0;exitY=0.5;exitDx=0;exitDy=0;entryX=0;entryY=0.25;entryDx=0;entryDy=0;" parent="1" source="SjxvgcQ4MEaavuWz4iyZ-28" target="SjxvgcQ4MEaavuWz4iyZ-57" edge="1">
          <mxGeometry relative="1" as="geometry" />
        </mxCell>
        <mxCell id="mbdMhaFXK_2ub9_Kfcrl-7" value="Đăng Ký" style="swimlane;fontStyle=0;childLayout=stackLayout;horizontal=1;startSize=26;horizontalStack=0;resizeParent=1;resizeParentMax=0;resizeLast=0;collapsible=1;marginBottom=0;align=center;fontSize=14;" parent="1" vertex="1">
          <mxGeometry x="220" y="540" width="160" height="56" as="geometry" />
        </mxCell>
        <mxCell id="mbdMhaFXK_2ub9_Kfcrl-8" value="Register" style="text;strokeColor=none;fillColor=none;spacingLeft=4;spacingRight=4;overflow=hidden;rotatable=0;points=[[0,0.5],[1,0.5]];portConstraint=eastwest;fontSize=12;whiteSpace=wrap;html=1;" parent="mbdMhaFXK_2ub9_Kfcrl-7" vertex="1">
          <mxGeometry y="26" width="160" height="30" as="geometry" />
        </mxCell>
        <mxCell id="SjxvgcQ4MEaavuWz4iyZ-17" style="edgeStyle=orthogonalEdgeStyle;rounded=0;orthogonalLoop=1;jettySize=auto;html=1;exitX=0;exitY=0.5;exitDx=0;exitDy=0;entryX=0;entryY=0;entryDx=0;entryDy=0;" parent="1" source="SjxvgcQ4MEaavuWz4iyZ-11" target="SjxvgcQ4MEaavuWz4iyZ-26" edge="1">
          <mxGeometry relative="1" as="geometry">
            <mxPoint x="80" y="650" as="targetPoint" />
          </mxGeometry>
        </mxCell>
        <mxCell id="SjxvgcQ4MEaavuWz4iyZ-48" style="edgeStyle=orthogonalEdgeStyle;rounded=0;orthogonalLoop=1;jettySize=auto;html=1;exitX=1;exitY=0.5;exitDx=0;exitDy=0;entryX=0.5;entryY=0;entryDx=0;entryDy=0;" parent="1" source="SjxvgcQ4MEaavuWz4iyZ-42" target="SjxvgcQ4MEaavuWz4iyZ-50" edge="1">
          <mxGeometry relative="1" as="geometry">
            <mxPoint x="660" y="620" as="targetPoint" />
          </mxGeometry>
        </mxCell>
        <mxCell id="mbdMhaFXK_2ub9_Kfcrl-13" style="edgeStyle=orthogonalEdgeStyle;rounded=0;orthogonalLoop=1;jettySize=auto;html=1;exitX=1;exitY=0.5;exitDx=0;exitDy=0;entryX=1.035;entryY=0.893;entryDx=0;entryDy=0;entryPerimeter=0;" parent="1" source="mbdMhaFXK_2ub9_Kfcrl-7" target="SjxvgcQ4MEaavuWz4iyZ-25" edge="1">
          <mxGeometry relative="1" as="geometry" />
        </mxCell>
        <mxCell id="mbdMhaFXK_2ub9_Kfcrl-14" style="edgeStyle=orthogonalEdgeStyle;rounded=0;orthogonalLoop=1;jettySize=auto;html=1;exitX=0;exitY=0.5;exitDx=0;exitDy=0;entryX=0;entryY=0.25;entryDx=0;entryDy=0;" parent="1" source="SjxvgcQ4MEaavuWz4iyZ-25" target="mbdMhaFXK_2ub9_Kfcrl-7" edge="1">
          <mxGeometry relative="1" as="geometry" />
        </mxCell>
        <mxCell id="mbdMhaFXK_2ub9_Kfcrl-15" style="edgeStyle=orthogonalEdgeStyle;rounded=0;orthogonalLoop=1;jettySize=auto;html=1;exitX=1;exitY=0;exitDx=0;exitDy=0;entryX=0.988;entryY=-0.106;entryDx=0;entryDy=0;entryPerimeter=0;" parent="1" source="SjxvgcQ4MEaavuWz4iyZ-22" target="SjxvgcQ4MEaavuWz4iyZ-3" edge="1">
          <mxGeometry relative="1" as="geometry" />
        </mxCell>
        <mxCell id="mbdMhaFXK_2ub9_Kfcrl-16" value="logined succes" style="text;html=1;align=center;verticalAlign=middle;resizable=0;points=[];autosize=1;strokeColor=none;fillColor=none;" parent="1" vertex="1">
          <mxGeometry x="375" y="356" width="100" height="30" as="geometry" />
        </mxCell>
        <mxCell id="mbdMhaFXK_2ub9_Kfcrl-17" value="no account" style="text;html=1;align=center;verticalAlign=middle;resizable=0;points=[];autosize=1;strokeColor=none;fillColor=none;" parent="1" vertex="1">
          <mxGeometry x="120" y="506" width="80" height="30" as="geometry" />
        </mxCell>
        <mxCell id="mbdMhaFXK_2ub9_Kfcrl-18" value="have acoount" style="text;html=1;align=center;verticalAlign=middle;resizable=0;points=[];autosize=1;strokeColor=none;fillColor=none;" parent="1" vertex="1">
          <mxGeometry x="400" y="506" width="100" height="30" as="geometry" />
        </mxCell>
        <mxCell id="mbdMhaFXK_2ub9_Kfcrl-19" value="add&amp;nbsp; cart" style="text;html=1;align=center;verticalAlign=middle;resizable=0;points=[];autosize=1;strokeColor=none;fillColor=none;" parent="1" vertex="1">
          <mxGeometry x="660" y="356" width="70" height="30" as="geometry" />
        </mxCell>
        <mxCell id="mbdMhaFXK_2ub9_Kfcrl-20" value="Change Info" style="swimlane;fontStyle=0;childLayout=stackLayout;horizontal=1;startSize=26;horizontalStack=0;resizeParent=1;resizeParentMax=0;resizeLast=0;collapsible=1;marginBottom=0;align=center;fontSize=14;" parent="1" vertex="1">
          <mxGeometry x="10" y="960" width="160" height="56" as="geometry" />
        </mxCell>
        <mxCell id="mbdMhaFXK_2ub9_Kfcrl-21" value="details" style="text;strokeColor=none;fillColor=none;spacingLeft=4;spacingRight=4;overflow=hidden;rotatable=0;points=[[0,0.5],[1,0.5]];portConstraint=eastwest;fontSize=12;whiteSpace=wrap;html=1;" parent="mbdMhaFXK_2ub9_Kfcrl-20" vertex="1">
          <mxGeometry y="26" width="160" height="30" as="geometry" />
        </mxCell>
        <mxCell id="mbdMhaFXK_2ub9_Kfcrl-24" style="edgeStyle=orthogonalEdgeStyle;rounded=0;orthogonalLoop=1;jettySize=auto;html=1;exitX=0;exitY=0.5;exitDx=0;exitDy=0;entryX=0.165;entryY=-0.041;entryDx=0;entryDy=0;entryPerimeter=0;" parent="1" source="SjxvgcQ4MEaavuWz4iyZ-27" target="mbdMhaFXK_2ub9_Kfcrl-20" edge="1">
          <mxGeometry relative="1" as="geometry" />
        </mxCell>
        <mxCell id="ZWHWGXlmYglfmt71y6hl-2" value="call back&amp;nbsp;" style="text;html=1;align=center;verticalAlign=middle;resizable=0;points=[];autosize=1;strokeColor=none;fillColor=none;" vertex="1" parent="1">
          <mxGeometry x="610" y="326" width="70" height="30" as="geometry" />
        </mxCell>
      </root>
    </mxGraphModel>
  </diagram>
</mxfile>
